<?xml version="1.0" encoding="UTF-8"?>
<svg width="512.15" height="512" version="1.1" viewBox="-4.771 .104 10.964 10.963" xmlns="http://www.w3.org/2000/svg">
<path d="m0.33486 10.241c-1.3923-0.08668-2.5051-0.4536-3.4087-1.1239-0.25536-0.18942-0.58558-0.51588-0.75514-0.74653-0.17575-0.23907-0.37149-0.64142-0.44312-0.91087-0.05025-0.18901-0.05739-0.25857-0.06093-0.59322l-4e-3 -0.3791-0.11103-0.14383c-0.37498-0.48574-0.43232-1.1351-0.14871-1.6843 0.13194-0.2555 0.40989-0.53012 0.65995-0.65204 0.30457-0.14851 0.58377-0.19778 0.89458-0.15787 0.21698 0.02786 0.44207 0.10397 0.6051 0.20459l0.12264 0.0757 0.17915-0.08264c0.68309-0.3151 1.4999-0.50926 2.3996-0.5704l0.20773-0.01412 0.03321-0.08908c0.01826-0.04899 0.21518-0.59306 0.43759-1.209 0.22241-0.61597 0.41083-1.1264 0.41872-1.1343 0.01105-0.01105 0.86687 0.19476 2.0032 0.48173 0.01969 5e-3 0.06527-0.03839 0.11776-0.11204 0.10562-0.14818 0.31854-0.31235 0.50318-0.38801 0.18642-0.07638 0.54787-0.0962 0.74049-0.04059 0.38988 0.11255 0.69718 0.41997 0.81402 0.81431 0.04763 0.16076 0.04931 0.4709 0.0034 0.62223-0.11981 0.39456-0.42331 0.69807-0.81788 0.81788-0.15133 0.04595-0.46147 0.04428-0.62223-0.0034-0.19523-0.05785-0.36701-0.15846-0.50341-0.29487-0.18499-0.18499-0.27865-0.36289-0.33005-0.62688l-0.0248-0.12736-0.70571-0.17741c-0.38814-0.09757-0.71923-0.17516-0.73575-0.17241-0.0187 0.0031-0.14164 0.31228-0.32553 0.81865-0.16252 0.44751-0.29593 0.8191-0.29648 0.82577-5.52e-4 0.0067 0.12557 0.02397 0.28026 0.03846 0.71877 0.06732 1.3687 0.23175 2.0079 0.508l0.26572 0.11484 0.1199-0.07283c0.1584-0.09623 0.41064-0.17912 0.62836-0.20651 0.76756-0.09655 1.4941 0.4174 1.675 1.1849 0.01737 0.07367 0.03172 0.23117 0.0319 0.35 5.43e-4 0.37092-0.10508 0.68133-0.3272 0.96155l-0.11143 0.14058-0.0012 0.32586c-0.0012 0.34497-0.02259 0.4958-0.10962 0.77456-0.4226 1.3536-2.0925 2.4085-4.1502 2.6217-0.23742 0.0246-0.95606 0.04453-1.1562 0.03207zm0.99565-1.1775c0.40971-0.06283 0.80202-0.19461 1.167-0.39197 0.12296-0.0665 0.1917-0.1163 0.18993-0.13761-0.0033-0.03983-0.28426-0.48541-0.30606-0.48541-0.0083 0-0.11568 0.051-0.23856 0.11333-0.44765 0.22707-0.84397 0.32089-1.3583 0.32157-0.54097 7.06e-4 -0.96142-0.09915-1.4152-0.33613l-0.21661-0.11312-0.32683 0.51388 0.12284 0.07454c0.16935 0.10276 0.48981 0.24296 0.73385 0.32104 0.51618 0.16516 1.0836 0.20644 1.6479 0.11988zm-1.9694-1.9144c0.35689-0.06768 0.65456-0.38133 0.70496-0.74278 0.06585-0.47226-0.26232-0.91244-0.73997-0.99251-0.39237-0.06577-0.80824 0.17835-0.95304 0.55946-0.12318 0.32418-0.04456 0.68186 0.20465 0.93107 0.21606 0.21606 0.48751 0.30087 0.7834 0.24475zm3.1968-0.01052c0.16897-0.04401 0.28066-0.1047 0.4026-0.21876 0.19431-0.18176 0.28409-0.40504 0.27251-0.67773-0.0065-0.15254-0.01846-0.19871-0.08813-0.33964-0.32847-0.6644-1.2446-0.6644-1.5731 0-0.06967 0.14093-0.08165 0.1871-0.08813 0.33964-0.01158 0.27269 0.0782 0.49597 0.27251 0.67773 0.22745 0.21275 0.51919 0.29236 0.80174 0.21876z" fill="#fff" stroke-width=".021412"/>
</svg>
