<?xml version="1.0" encoding="UTF-8"?>
<svg width="63.478mm" height="63.478mm" version="1.1" viewBox="0 0 63.478 63.478" xmlns="http://www.w3.org/2000/svg">
<g transform="translate(-52.952 -162.9)">
<path d="m102.27 221.06c-0.29104-0.11891-3.9061-2.6686-8.0336-5.6659l-7.5044-5.4497-4.0917 3.8967c-4.3364 4.1297-5.0864 4.6876-5.9949 4.4595-1.3353-0.3353-1.5633-0.82504-4.6482-9.9842l-3.0648-9.0994-7.4083-2.3031c-6.0231-1.8725-7.5196-2.4318-8.0036-2.9913-0.96939-1.1207-0.68697-2.4447 0.6693-3.1376 1.4746-0.75344 59.801-22.392 60.357-22.392 0.69894 0 1.8779 1.1138 1.8778 1.7739-1.6e-4 0.74051-10.017 48.819-10.311 49.49-0.54121 1.235-2.5029 1.9512-3.8438 1.4033zm-24.861-13.527 0.45683-4.3844 13.602-12.265c8.6016-7.7564 13.572-12.417 13.522-12.678-0.0437-0.22715-0.289-0.45335-0.54502-0.50265-0.26756-0.0515-7.1285 4.1575-16.137 9.8993-8.6191 5.494-15.72 10.027-15.78 10.073-0.09154 0.0709 1.2105 4.5174 3.7325 12.746 0.28305 0.92357 0.55448 1.638 0.60317 1.5875 0.04869-0.0504 0.2941-2.0647 0.54536-4.4761z" fill="#fff" stroke-width=".26458"/>
</g>
</svg>
