<?xml version="1.0" encoding="UTF-8" standalone="no"?>
<svg
   enable-background="new 0 0 24 24"
   height="24px"
   viewBox="0 0 24 24"
   width="24px"
   fill="#000000"
   version="1.1"
   id="svg846"
   sodipodi:docname="unverified.svg"
   inkscape:version="1.1.1 (3bf5ae0d25, 2021-09-20)"
   xmlns:inkscape="http://www.inkscape.org/namespaces/inkscape"
   xmlns:sodipodi="http://sodipodi.sourceforge.net/DTD/sodipodi-0.dtd"
   xmlns="http://www.w3.org/2000/svg"
   xmlns:svg="http://www.w3.org/2000/svg">
  <defs
     id="defs850" />
  <sodipodi:namedview
     id="namedview848"
     pagecolor="#505050"
     bordercolor="#ffffff"
     borderopacity="1"
     inkscape:pageshadow="0"
     inkscape:pageopacity="0"
     inkscape:pagecheckerboard="1"
     showgrid="false"
     inkscape:zoom="2.7578125"
     inkscape:cx="-160.27195"
     inkscape:cy="38.254957"
     inkscape:window-width="2560"
     inkscape:window-height="1361"
     inkscape:window-x="-9"
     inkscape:window-y="-9"
     inkscape:window-maximized="1"
     inkscape:current-layer="g844" />
  <g
     id="g840">
    <rect
       fill="none"
       height="24"
       width="24"
       id="rect838" />
  </g>
  <g
     id="g844">
    <path
       d="M 23,12 20.56,9.21 20.9,5.52 17.29,4.7 15.4,1.5 12,2.96 8.6,1.5 6.71,4.69 3.1,5.5 3.44,9.2 1,12 3.44,14.79 3.1,18.49 6.71,19.31 8.6,22.5 12,21.03 15.4,22.49 17.29,19.3 20.9,18.48 20.56,14.79 Z M 7.6352596,14.959328 10.363465,12.196535 7.6352596,9.4374375 9.1162205,7.9596422 l 2.7590555,2.7250818 3.088488,-2.7250818 1.481575,1.4777953 -3.058252,2.7609875 3.058252,2.760903 -1.481575,1.477795 -3.088488,-2.728777 -2.7584417,2.728777 z"
       id="path842"
       sodipodi:nodetypes="cccccccccccccccccccccccccccccccccc" />
  </g>
</svg>
