<?xml version="1.0" encoding="UTF-8"?>
<svg width="63.923mm" height="63.923mm" version="1.1" viewBox="0 0 63.923 63.923" xmlns="http://www.w3.org/2000/svg">
<g transform="translate(53.318 -69.911)" fill="#fff">
<path d="m-32.54 133.68c-3.9276-0.62554-7.0588-2.29-10.192-5.4176-3.5772-3.5713-5.3765-7.3486-5.9642-12.521-0.49293-4.3381 0.53319-9.268 2.6896-12.922 1.2437-2.1075 4.2445-5.0697 6.4827-6.3994 3.2174-1.9114 8.5504-3.4839 11.825-3.4867l0.99767-8.4e-4 -0.14324 10.629-2.7781 0.71688c-6.6592 1.7184-9.2099 4.5094-8.9414 9.7838 0.13714 2.6934 0.8868 4.4317 2.6881 6.233 2.1887 2.1887 5.926 3.4053 8.6599 2.819 2.8366-0.60834 4.8762-2.1844 6.1951-4.7871 1.5411-3.0412 1.5051-2.3896 1.4579-26.387l-0.0433-22.027h5.3056c5.2913 0 5.3059 0.0016 5.4217 0.59531 1.3129 6.728 3.7985 10.608 8.1754 12.762 1.7665 0.86922 4.7987 1.7089 6.2101 1.7197l0.60103 5e-3 -0.14372 10.186-2.249-0.0391c-3.4649-0.0603-7.1379-1.2051-10.853-3.3827l-1.582-0.92717-0.0022 10.112c-0.0024 10.632-0.17154 13.288-1.0639 16.693-2.0273 7.737-7.8656 13.803-15.058 15.645-2.0607 0.5278-5.698 0.71579-7.6951 0.39773z" fill="#fff" stroke-width=".26458"/>
</g>
</svg>
