<svg width="24" height="24" viewBox="0 0 24 24" fill="none" xmlns="http://www.w3.org/2000/svg">
<path fill-rule="evenodd" clip-rule="evenodd" d="M14.29 14C15.8597 14.0319 17.1896 15.1652 17.47 16.71L17.7 17.85C17.9272 18.8339 17.7039 19.8679 17.0909 20.6704C16.4779 21.4729 15.539 21.9603 14.53 22H5.24C4.22956 21.9639 3.28834 21.4774 2.67459 20.6739C2.06084 19.8704 1.83902 18.8343 2.07 17.85L2.3 16.71C2.57603 15.1668 3.90262 14.0327 5.47 14H14.29ZM14.53 20.5C15.0353 20.4955 15.5107 20.2596 15.82 19.86C16.2164 19.3815 16.368 18.7459 16.23 18.14L16 17C15.8588 16.1556 15.1454 15.5256 14.29 15.49H5.47C4.61691 15.5264 3.90679 16.1572 3.77 17L3.59 18.15C3.45531 18.7527 3.60664 19.3839 4 19.86C4.29834 20.2462 4.75236 20.4805 5.24 20.5H14.53Z" fill="#7D7975"/>
<path fill-rule="evenodd" clip-rule="evenodd" d="M10.38 12H9.37999C7.17085 12 5.37999 10.2092 5.37999 8.00001V5.36001C5.37999 3.50434 6.88431 2.00001 8.73999 2.00001H11C11.8954 1.99199 12.7567 2.34277 13.3918 2.97405C14.0268 3.60534 14.3827 4.46458 14.38 5.36001V8.00001C14.38 10.2092 12.5891 12 10.38 12ZM8.73999 3.50001C7.71274 3.50001 6.87999 4.33276 6.87999 5.36001V8.00001C6.88535 9.37072 7.98937 10.4836 9.35999 10.5H10.36C11.023 10.5 11.6589 10.2366 12.1278 9.76778C12.5966 9.29894 12.86 8.66305 12.86 8.00001V5.36001C12.86 4.33276 12.0272 3.50001 11 3.50001H8.73999Z" fill="#7D7975"/>
<path d="M21.38 6.25H20V4.88C20 4.46579 19.6642 4.13 19.25 4.13C18.8358 4.13 18.5 4.46579 18.5 4.88V6.25H17.14C16.7258 6.25 16.39 6.58579 16.39 7C16.39 7.41422 16.7258 7.75 17.14 7.75H18.51V9.12C18.51 9.53422 18.8458 9.87 19.26 9.87C19.6742 9.87 20.01 9.53422 20.01 9.12V7.75H21.38C21.7942 7.75 22.13 7.41422 22.13 7C22.13 6.58579 21.7942 6.25 21.38 6.25Z" fill="#7D7975"/>
</svg>
