<svg width="15" height="15" viewBox="0 0 15 15" fill="none" xmlns="http://www.w3.org/2000/svg">
<g opacity="0.3">
<path d="M13.4838 0.973296C13.7919 0.863271 14.0866 0.742125 14.3627 0.609354C14.5244 0.531597 14.7177 0.646396 14.7177 0.825804V2.76995C14.7177 2.81563 14.6943 2.97851 14.3834 3.241C14.0766 3.50005 13.5803 3.77311 12.8898 4.01974C11.5164 4.51023 9.561 4.83044 7.35887 4.83044C5.15674 4.83044 3.20135 4.51023 1.82795 4.01974C1.13741 3.77311 0.641121 3.50005 0.334339 3.241C0.0234606 2.97851 0 2.81563 0 2.76995V0.825804C0 0.646396 0.193385 0.531597 0.355067 0.609354C0.631141 0.742125 0.925864 0.863271 1.23394 0.973296C2.84353 1.54815 5.0091 1.88689 7.35887 1.88689C9.70864 1.88689 11.8742 1.54815 13.4838 0.973296Z" fill="#9E836B"/>
<path d="M13.4838 10.3927C13.7919 10.2826 14.0866 10.1615 14.3627 10.0287C14.5244 9.95095 14.7177 10.0658 14.7177 10.2452V12.1893C14.7177 12.235 14.6943 12.3979 14.3834 12.6604C14.0766 12.9194 13.5803 13.1925 12.8898 13.4391C11.5164 13.9296 9.561 14.2498 7.35887 14.2498C5.15674 14.2498 3.20135 13.9296 1.82795 13.4391C1.13741 13.1925 0.641121 12.9194 0.334339 12.6604C0.0234606 12.3979 0 12.235 0 12.1893V10.2452C0 10.0658 0.193385 9.95095 0.355067 10.0287C0.631141 10.1615 0.925864 10.2826 1.23394 10.3927C2.84353 10.9675 5.0091 11.3062 7.35887 11.3062C9.70864 11.3062 11.8742 10.9675 13.4838 10.3927Z" fill="#9E836B"/>
</g>
</svg>
