<svg width="188" height="48" viewBox="0 0 188 48" fill="none" xmlns="http://www.w3.org/2000/svg">
<path d="M61.3569 17.579C59.964 16.8937 58.8081 15.8071 58.0383 14.4593C57.233 12.9891 56.8313 11.3319 56.8742 9.65614C56.8325 7.97655 57.234 6.3156 58.0383 4.8404C58.8053 3.48731 59.9616 2.39605 61.3569 1.70838C62.9232 0.95326 64.6463 0.579962 66.3847 0.61909C67.5006 0.606036 68.6143 0.722365 69.7034 0.965748C70.6644 1.19169 71.5838 1.5677 72.4277 2.07994V6.80891C71.6985 6.24654 70.8651 5.83416 69.9757 5.59561C68.9482 5.3335 67.8905 5.20864 66.8301 5.22429C65.278 5.22429 64.1017 5.59568 63.3013 6.33848C62.5001 7.08111 62.0996 8.187 62.0998 9.65613C62.0998 11.1253 62.5126 12.2353 63.3383 12.9861C64.1637 13.7375 65.3277 14.113 66.8301 14.1126C67.896 14.1264 68.9586 13.9931 69.988 13.7164C70.9321 13.4473 71.8239 13.0204 72.6255 12.4538V17.1581C71.024 18.1651 68.9438 18.6685 66.3847 18.6683C64.6462 18.7074 62.9232 18.3341 61.3569 17.579Z" fill="#582900"/>
<path d="M74.8176 17.616C74.3623 17.2631 73.9994 16.805 73.76 16.2811C73.5206 15.7572 73.4118 15.1831 73.4429 14.608C73.4073 14.0288 73.5101 13.4494 73.7427 12.9177C73.9753 12.386 74.331 11.9173 74.7806 11.5502C75.672 10.8488 76.9679 10.4981 78.6685 10.4979C79.2929 10.4994 79.9155 10.5658 80.5262 10.6959C81.0713 10.802 81.6029 10.9682 82.1115 11.1912V10.9683C82.1139 10.7057 82.0389 10.4482 81.8957 10.228C81.7525 10.0078 81.5476 9.83469 81.3065 9.73034C80.6028 9.41596 79.8349 9.27178 79.0651 9.30947C77.6956 9.2948 76.3406 9.59113 75.1023 10.1761V6.90778C75.7809 6.60344 76.4972 6.39116 77.2322 6.27659C78.1563 6.11566 79.0929 6.03694 80.0309 6.04138C82.3254 6.04138 84.0755 6.47877 85.2812 7.35355C85.8689 7.77236 86.3423 8.33167 86.6582 8.98042C86.974 9.62917 87.1223 10.3467 87.0895 11.0675V18.297H82.4084V17.3561C81.9429 17.7937 81.3839 18.1197 80.7738 18.3093C80.0314 18.5564 79.2531 18.6777 78.4707 18.6683C77.1698 18.7336 75.8843 18.3633 74.8176 17.616ZM81.2443 15.5486C81.5846 15.4134 81.8836 15.1916 82.1115 14.9051V13.9889C81.4917 13.5902 80.7679 13.3835 80.0309 13.3947C79.645 13.3709 79.2632 13.4849 78.9536 13.7165C78.8257 13.8258 78.7246 13.9631 78.6581 14.1176C78.5916 14.2722 78.5614 14.44 78.5699 14.608C78.5628 14.771 78.5925 14.9335 78.6568 15.0835C78.7211 15.2335 78.8184 15.3671 78.9413 15.4744C79.2454 15.7075 79.6239 15.822 80.0063 15.7964C80.4317 15.8005 80.8533 15.7161 81.2443 15.5486Z" fill="#582900"/>
<path d="M89.1443 6.41269H93.9245V7.70021C94.4651 7.17409 95.1229 6.7837 95.8437 6.56113C96.7099 6.27291 97.618 6.13068 98.5308 6.14025V9.97791C97.5892 9.96259 96.6516 10.1048 95.7569 10.3988C95.0676 10.5878 94.4751 11.0299 94.0976 11.6367V18.297H89.1443V6.41269Z" fill="#582900"/>
<path d="M99.719 0H104.672V18.297H99.719V0Z" fill="#582900"/>
<path d="M109.886 17.8638C108.818 17.3823 107.911 16.6046 107.273 15.6231C106.674 14.6428 106.356 13.5162 106.356 12.3673C106.356 11.2184 106.674 10.0918 107.273 9.11151C107.913 8.1285 108.819 7.34718 109.886 6.85824C111.144 6.31928 112.498 6.04138 113.867 6.04138C115.236 6.04138 116.59 6.31928 117.848 6.85824C118.92 7.34462 119.83 8.12624 120.474 9.11151C121.073 10.0919 121.39 11.2185 121.39 12.3673C121.39 13.5161 121.073 14.6427 120.474 15.6231C119.832 16.6069 118.921 17.3849 117.848 17.8638C116.588 18.3948 115.234 18.6683 113.867 18.6683C112.499 18.6683 111.146 18.3948 109.886 17.8638ZM115.644 14.1622C115.872 13.922 116.049 13.6379 116.164 13.3272C116.279 13.0164 116.33 12.6856 116.312 12.3547C116.33 12.0257 116.28 11.6965 116.165 11.3877C116.05 11.0789 115.873 10.7971 115.644 10.5598C115.406 10.3366 115.125 10.1635 114.819 10.0508C114.513 9.93812 114.187 9.88809 113.861 9.9037C113.537 9.88724 113.212 9.93691 112.908 10.0497C112.604 10.1625 112.325 10.336 112.09 10.5598C111.865 10.7989 111.69 11.0813 111.578 11.3899C111.465 11.6984 111.416 12.0267 111.434 12.3547C111.416 12.6846 111.466 13.0146 111.578 13.325C111.691 13.6355 111.865 13.9202 112.09 14.1622C112.323 14.3895 112.601 14.5661 112.906 14.6811C113.21 14.7961 113.536 14.847 113.861 14.8306C114.188 14.8462 114.515 14.7949 114.821 14.68C115.128 14.5651 115.408 14.3889 115.644 14.1622H115.644Z" fill="#582900"/>
<path d="M124.696 18.3961C123.804 18.2748 122.938 18.0071 122.133 17.6037V14.1127C122.916 14.5524 123.753 14.8895 124.622 15.1154C125.487 15.3703 126.382 15.5077 127.284 15.5239C127.633 15.5362 127.982 15.5072 128.324 15.4374C128.539 15.3798 128.646 15.2601 128.646 15.0784C128.646 14.9134 128.543 14.7895 128.337 14.7069C127.959 14.5719 127.574 14.4562 127.185 14.3602L126.046 14.0384C125.215 13.8132 124.414 13.4934 123.656 13.0853C123.122 12.7977 122.677 12.3696 122.368 11.8473C122.076 11.2776 121.935 10.6425 121.959 10.0028C121.926 9.40827 122.057 8.81608 122.336 8.29024C122.616 7.76439 123.033 7.32489 123.545 7.01924C124.601 6.36741 126.046 6.04146 127.878 6.04138C128.83 6.04905 129.78 6.14429 130.714 6.32592C131.509 6.43933 132.276 6.69516 132.98 7.08112V10.5226C132.341 10.1386 131.648 9.85085 130.925 9.66848C130.16 9.44334 129.369 9.32258 128.572 9.3095C127.598 9.3095 127.111 9.47453 127.111 9.80459C127.111 9.95326 127.231 10.0771 127.47 10.1761C127.877 10.3232 128.295 10.439 128.72 10.5226L129.761 10.7703C130.629 10.9694 131.464 11.2947 132.237 11.7359C132.756 12.0358 133.177 12.4784 133.451 13.0111C133.699 13.5846 133.818 14.206 133.798 14.8307C133.806 15.3915 133.668 15.9448 133.396 16.4356C133.125 16.9264 132.729 17.3377 132.25 17.6286C131.218 18.3217 129.736 18.6682 127.804 18.6683C126.762 18.6639 125.723 18.5728 124.696 18.3961Z" fill="#582900"/>
<path d="M137.104 18.3961C136.212 18.2748 135.346 18.0071 134.541 17.6037V14.1127C135.324 14.5524 136.161 14.8895 137.03 15.1154C137.895 15.3703 138.79 15.5077 139.692 15.5239C140.041 15.5362 140.39 15.5072 140.732 15.4374C140.947 15.3798 141.054 15.2601 141.054 15.0784C141.054 14.9134 140.951 14.7895 140.745 14.7069C140.367 14.5719 139.982 14.4562 139.593 14.3602L138.454 14.0384C137.623 13.8132 136.822 13.4934 136.064 13.0853C135.53 12.7977 135.085 12.3696 134.776 11.8473C134.484 11.2776 134.343 10.6425 134.367 10.0028C134.334 9.40827 134.465 8.81608 134.744 8.29024C135.024 7.76439 135.441 7.32489 135.953 7.01924C137.009 6.36741 138.454 6.04146 140.286 6.04138C141.238 6.04905 142.188 6.14429 143.122 6.32592C143.917 6.43933 144.684 6.69516 145.388 7.08112V10.5226C144.749 10.1386 144.056 9.85085 143.333 9.66848C142.568 9.44334 141.777 9.32258 140.98 9.3095C140.006 9.3095 139.519 9.47453 139.519 9.80459C139.519 9.95326 139.639 10.0771 139.878 10.1761C140.285 10.3232 140.703 10.439 141.128 10.5226L142.169 10.7703C143.037 10.9694 143.871 11.2947 144.645 11.7359C145.164 12.0358 145.585 12.4784 145.859 13.0111C146.107 13.5846 146.226 14.206 146.206 14.8307C146.214 15.3915 146.076 15.9448 145.804 16.4356C145.533 16.9264 145.137 17.3377 144.658 17.6286C143.626 18.3217 142.144 18.6682 140.212 18.6683C139.17 18.6639 138.131 18.5728 137.104 18.3961Z" fill="#582900"/>
<path d="M148.781 23.0755C148.303 23.0324 147.836 22.9154 147.394 22.7288V19.0645C147.932 19.2673 148.503 19.368 149.078 19.3616C149.509 19.3901 149.936 19.2723 150.292 19.0273C150.602 18.7608 150.834 18.4138 150.96 18.0245L151.183 17.4552L146.032 6.41269H150.985L153.808 13.6671L156.458 6.41269H161.437L156.681 18.5694C156.211 19.9263 155.391 21.1349 154.304 22.0727C153.23 22.8606 151.919 23.258 150.589 23.1992C149.984 23.1973 149.38 23.156 148.781 23.0755Z" fill="#582900"/>
<path d="M61.3569 41.8597C59.964 41.1745 58.8081 40.088 58.0383 38.7403C57.233 37.2699 56.8314 35.6127 56.8742 33.9369C56.8325 32.2573 57.234 30.5963 58.0383 29.1211C58.8054 27.7682 59.9616 26.677 61.3569 25.9894C62.9231 25.2338 64.6462 24.8604 66.3847 24.8996C67.5006 24.8865 68.6143 25.0029 69.7034 25.2462C70.6644 25.4723 71.5838 25.8484 72.4276 26.3607V31.0896C71.6985 30.5273 70.8651 30.1151 69.9757 29.8766C68.9482 29.6141 67.8905 29.4891 66.8301 29.5048C65.278 29.5048 64.1017 29.8763 63.3013 30.6192C62.5001 31.3619 62.0996 32.4677 62.0998 33.9369C62.0998 35.406 62.5126 36.516 63.3383 37.2669C64.1637 38.0181 65.3277 38.3936 66.8301 38.3936C67.896 38.4072 68.9586 38.2738 69.988 37.9972C70.932 37.728 71.8238 37.3012 72.6255 36.7348V41.4386C71.024 42.4459 68.9438 42.9493 66.3847 42.949C64.6462 42.9882 62.9232 42.6149 61.3569 41.8597Z" fill="#582900"/>
<path d="M74.8176 41.8967C74.3623 41.5438 73.9994 41.0858 73.76 40.5619C73.5206 40.038 73.4118 39.4639 73.4429 38.8887C73.4073 38.3095 73.5101 37.7301 73.7427 37.1985C73.9753 36.6668 74.331 36.198 74.7806 35.8309C75.672 35.1296 76.9679 34.7788 78.6685 34.7786C79.293 34.78 79.9155 34.8464 80.5262 34.9769C81.0712 35.0829 81.6029 35.249 82.1115 35.472V35.2491C82.114 34.9865 82.039 34.729 81.8958 34.5088C81.7526 34.2886 81.5476 34.1156 81.3065 34.0113C80.6029 33.6967 79.835 33.5525 79.0651 33.5902C77.6956 33.5755 76.3406 33.8717 75.1023 34.4566V31.1888C75.7808 30.884 76.4971 30.6716 77.2322 30.5571C78.1563 30.3963 79.0929 30.3176 80.0309 30.3219C82.3254 30.3219 84.0755 30.7593 85.2812 31.6341C85.8689 32.053 86.3422 32.6123 86.6581 33.2611C86.974 33.9099 87.1223 34.6274 87.0895 35.3482V42.5777H82.4084V41.6369C81.9429 42.0744 81.3839 42.4003 80.7738 42.5901C80.0314 42.837 79.253 42.9583 78.4707 42.949C77.1698 43.0143 75.8843 42.644 74.8176 41.8967ZM81.2443 39.8296C81.5846 39.6942 81.8835 39.4722 82.1115 39.1856V38.2699C81.4917 37.8711 80.7679 37.6644 80.0309 37.6757C79.645 37.6517 79.2632 37.7656 78.9536 37.9972C78.8258 38.1066 78.7247 38.2439 78.6582 38.3984C78.5916 38.553 78.5614 38.7207 78.5699 38.8887C78.5628 39.0518 78.5925 39.2143 78.6568 39.3643C78.7211 39.5142 78.8184 39.6478 78.9413 39.7551C79.2454 39.9883 79.6239 40.1027 80.0063 40.0771C80.4316 40.0812 80.8532 39.9969 81.2443 39.8296Z" fill="#582900"/>
<path d="M90.3581 41.6615C89.5263 40.6947 89.1004 39.4441 89.1693 38.1708V34.036H87.5347V30.6932H89.1693V27.128H94.1473V30.6932H96.7971V34.036H94.1473V37.4528C94.1061 37.9038 94.2244 38.3549 94.4817 38.7275C94.6308 38.8688 94.8087 38.9763 95.0031 39.0426C95.1975 39.1089 95.404 39.1324 95.6084 39.1116C96.2098 39.1097 96.7998 38.9473 97.3175 38.6412V42.3055C96.837 42.5203 96.3345 42.6821 95.819 42.7883C95.1695 42.9067 94.5099 42.9605 93.8499 42.949C92.3144 42.949 91.1504 42.5199 90.3581 41.6615Z" fill="#582900"/>
<path d="M100.017 41.3149C98.6794 40.2256 98.0107 38.6823 98.0107 36.685C98.0107 34.7208 98.6133 33.1693 99.8183 32.0305C101.024 30.8914 102.757 30.3219 105.019 30.3219C106.309 30.2856 107.587 30.5617 108.747 31.1266C109.73 31.6169 110.544 32.3883 111.087 33.3427C111.623 34.3122 111.896 35.4046 111.88 36.5119V38.121H102.716C103.112 39.1775 104.309 39.7058 106.307 39.7058C107.124 39.7039 107.939 39.6418 108.747 39.5199C109.471 39.4242 110.181 39.2456 110.864 38.9878V42.0826C110.107 42.3824 109.317 42.5942 108.512 42.7138C107.554 42.872 106.585 42.9507 105.614 42.949C103.22 42.949 101.354 42.4043 100.017 41.3149ZM107.199 35.2491C107.17 35.0091 107.094 34.7772 106.975 34.5669C106.856 34.3565 106.696 34.1719 106.505 34.0237C106.047 33.7116 105.499 33.5592 104.945 33.5902C104.393 33.5573 103.847 33.7146 103.397 34.036C103.023 34.338 102.779 34.7723 102.716 35.2491L107.199 35.2491Z" fill="#582900"/>
<path d="M113.563 30.6932H118.344V31.9807C118.884 31.4548 119.542 31.0645 120.263 30.8421C121.129 30.5536 122.037 30.4112 122.95 30.421V34.2589C122.009 34.2436 121.071 34.3858 120.176 34.6795C119.487 34.8685 118.894 35.3107 118.517 35.9177V42.5777H113.563V30.6932Z" fill="#582900"/>
<path d="M124.138 30.6932H128.919V31.783C129.435 31.3083 130.041 30.942 130.702 30.706C131.408 30.4477 132.154 30.3176 132.906 30.3219C134.06 30.2979 135.202 30.5662 136.225 31.102C137.166 31.6058 137.937 32.3768 138.441 33.318C138.954 34.3443 139.221 35.476 139.221 36.6234C139.221 37.7708 138.954 38.9024 138.441 39.9287C137.935 40.8716 137.165 41.646 136.225 42.1566C134.54 43.0209 132.582 43.1856 130.776 42.6147C130.166 42.4272 129.595 42.1294 129.092 41.736V48H124.138V30.6932ZM133.414 38.4553C133.649 38.2119 133.831 37.9222 133.948 37.6047C134.065 37.2872 134.115 36.9488 134.095 36.611C134.115 36.2788 134.064 35.9461 133.947 35.6346C133.83 35.3231 133.648 35.0399 133.414 34.8033C132.907 34.3551 132.244 34.124 131.568 34.1598C131.04 34.1506 130.521 34.2922 130.07 34.5681C129.642 34.8301 129.301 35.2138 129.092 35.6702V37.6012C129.301 38.0576 129.642 38.4412 130.07 38.7028C130.521 38.9791 131.04 39.1209 131.568 39.1116C131.904 39.1294 132.24 39.0805 132.557 38.9679C132.873 38.8552 133.165 38.681 133.414 38.4553Z" fill="#582900"/>
<path d="M141.648 28.6384C141.172 28.15 140.905 27.4947 140.905 26.8124C140.905 26.1301 141.172 25.4748 141.648 24.9864C142.15 24.5151 142.813 24.2538 143.502 24.2561C144.19 24.2584 144.852 24.5241 145.351 24.9987C145.59 25.2363 145.78 25.5188 145.909 25.8301C146.039 26.1414 146.106 26.4752 146.106 26.8124C146.106 27.1495 146.039 27.4834 145.909 27.7946C145.78 28.1059 145.59 28.3885 145.351 28.626C144.848 29.0933 144.188 29.3541 143.502 29.3564C142.816 29.3587 142.154 29.1023 141.648 28.6384ZM141.029 30.6932H145.982V42.5777H141.029V30.6932Z" fill="#582900"/>
<path d="M148.285 24.2807H153.238V42.5777H148.285V24.2807Z" fill="#582900"/>
<path d="M155.418 24.2807H160.371V42.5777H155.418V24.2807Z" fill="#582900"/>
<path d="M163.43 41.8967C162.975 41.5438 162.612 41.0858 162.373 40.5619C162.133 40.038 162.024 39.4639 162.055 38.8887C162.02 38.3095 162.123 37.7301 162.355 37.1985C162.588 36.6668 162.944 36.198 163.393 35.8309C164.285 35.1296 165.58 34.7788 167.281 34.7786C167.906 34.78 168.528 34.8464 169.139 34.9769C169.684 35.0829 170.215 35.249 170.724 35.472V35.2491C170.727 34.9865 170.652 34.729 170.508 34.5088C170.365 34.2886 170.16 34.1156 169.919 34.0113C169.215 33.6967 168.448 33.5525 167.678 33.5902C166.308 33.5755 164.953 33.8717 163.715 34.4566V31.1888C164.393 30.884 165.11 30.6716 165.845 30.5571C166.769 30.3963 167.705 30.3176 168.643 30.3219C170.938 30.3219 172.688 30.7593 173.894 31.6341C174.481 32.053 174.955 32.6123 175.271 33.2611C175.587 33.9099 175.735 34.6274 175.702 35.3482V42.5777H171.021V41.6369C170.555 42.0744 169.996 42.4003 169.386 42.5901C168.644 42.837 167.866 42.9583 167.083 42.949C165.782 43.0143 164.497 42.644 163.43 41.8967ZM169.857 39.8296C170.197 39.6942 170.496 39.4722 170.724 39.1856V38.2699C170.104 37.8711 169.38 37.6644 168.643 37.6757C168.258 37.6517 167.876 37.7656 167.566 37.9972C167.438 38.1066 167.337 38.2439 167.271 38.3984C167.204 38.553 167.174 38.7207 167.182 38.8887C167.175 39.0518 167.205 39.2143 167.269 39.3643C167.334 39.5142 167.431 39.6478 167.554 39.7551C167.858 39.9883 168.237 40.1027 168.619 40.0771C169.044 40.0812 169.466 39.9969 169.857 39.8296Z" fill="#582900"/>
<path d="M177.757 30.6932H182.537V31.9807C183.078 31.4548 183.735 31.0645 184.456 30.8421C185.322 30.5536 186.231 30.4112 187.144 30.421V34.2589C186.202 34.2436 185.264 34.3858 184.369 34.6795C183.68 34.8685 183.087 35.3107 182.71 35.9177V42.5777H177.757V30.6932Z" fill="#582900"/>
<path d="M24.8639 48C38.1226 48 48.871 37.2548 48.871 24C48.871 10.7452 38.1226 0 24.8639 0C11.6051 0 0.856689 10.7452 0.856689 24C0.856689 37.2548 11.6051 48 24.8639 48Z" fill="#582900"/>
<path d="M36.7368 21.674C31.0382 15.2238 24.8692 15.5505 24.8639 15.5507C24.8586 15.5505 18.6896 15.2238 12.991 21.674C7.28987 28.1271 5.31095 32.3664 7.4312 35.9932C9.55144 39.6202 13.9804 39.5731 17.9853 41.6456C21.9829 43.7143 22.9326 44.179 24.8644 44.179C26.7962 44.179 27.7449 43.7143 31.7424 41.6456C35.7474 39.5731 40.1763 39.6202 42.2966 35.9932C44.4168 32.3664 42.4379 28.1271 36.7368 21.674Z" fill="#FFD444"/>
<path d="M30.4315 9.72273C29.5403 9.61205 28.6358 9.74555 27.8146 10.109C26.9934 10.4724 26.2865 11.052 25.7693 11.786C25.6667 11.9305 25.5309 12.0484 25.3734 12.1297C25.2159 12.211 25.0412 12.2535 24.8639 12.2535C24.6866 12.2535 24.5119 12.211 24.3544 12.1297C24.1969 12.0484 24.0611 11.9305 23.9585 11.786C23.3665 10.9488 22.5299 10.3154 21.5634 9.97254C20.5969 9.62971 19.548 9.59435 18.5606 9.87131C17.5732 10.1483 16.6958 10.724 16.0487 11.5194C15.4017 12.3148 15.0168 13.2909 14.9469 14.3137C14.8769 15.3365 15.1254 16.3559 15.6582 17.232C16.1909 18.108 16.9818 18.7977 17.9223 19.2064C18.8628 19.6151 19.9068 19.7227 20.911 19.5145C21.9152 19.3064 22.8302 18.7926 23.5306 18.0437C23.7021 17.8623 23.9088 17.7178 24.138 17.6191C24.3673 17.5203 24.6143 17.4694 24.8639 17.4694C25.1135 17.4694 25.3605 17.5203 25.5898 17.6191C25.819 17.7178 26.0257 17.8623 26.1972 18.0437C26.7425 18.626 27.4201 19.0684 28.1726 19.3334C28.9251 19.5985 29.7305 19.6784 30.5205 19.5663C31.3104 19.4543 32.0618 19.1536 32.7109 18.6898C33.36 18.226 33.8878 17.6127 34.2496 16.9017C34.6113 16.1908 34.7965 15.4032 34.7893 14.6056C34.7821 13.808 34.5827 13.0239 34.2082 12.3196C33.8336 11.6153 33.2948 11.0116 32.6374 10.5596C31.98 10.1075 31.2234 9.82051 30.4315 9.72276V9.72273Z" fill="#FFD444"/>
<path d="M19.7343 32.6223C23.1821 32.6223 25.9771 29.8282 25.9771 26.3814C25.9771 22.9346 23.1821 20.1404 19.7343 20.1404C16.2865 20.1404 13.4915 22.9346 13.4915 26.3814C13.4915 29.8282 16.2865 32.6223 19.7343 32.6223Z" fill="white"/>
<path d="M29.9933 32.6223C33.4411 32.6223 36.2361 29.8282 36.2361 26.3814C36.2361 22.9346 33.4411 20.1404 29.9933 20.1404C26.5455 20.1404 23.7505 22.9346 23.7505 26.3814C23.7505 29.8282 26.5455 32.6223 29.9933 32.6223Z" fill="white"/>
<path d="M20.86 36.8222C20.8316 37.0649 20.8167 37.309 20.8152 37.5533C20.8152 40.4188 22.6278 42.7418 24.8638 42.7418C27.0998 42.7418 28.9124 40.4188 28.9124 37.5533C28.9109 37.309 28.896 37.0649 28.8676 36.8222C26.2184 37.2845 23.5092 37.2845 20.86 36.8222H20.86Z" fill="#F1668C"/>
<path d="M10.6255 29.1344C11.4602 30.2765 12.4378 31.307 13.5344 32.2007C14.587 33.0858 15.7497 33.8308 16.9938 34.4172C19.459 35.5594 22.1469 36.1409 24.8639 36.1197C27.5805 36.1387 30.2677 35.5565 32.7327 34.4149C33.9764 33.8283 35.1389 33.0835 36.1915 32.1989C37.2885 31.3056 38.2667 30.2758 39.1023 29.1344C38.5985 30.5129 37.8431 31.7859 36.8745 32.8888C35.9027 34.0246 34.7573 34.9996 33.4808 35.7776C30.8733 37.3205 27.8938 38.1222 24.8639 38.096C21.8344 38.12 18.8556 37.3176 16.2483 35.7753C14.9721 34.9971 13.8269 34.0223 12.8551 32.8869C11.8863 31.7846 11.1303 30.5122 10.6255 29.1344Z" fill="#582900"/>
<path d="M25.8526 37.1609L24.8636 41.7619L23.875 37.1609H25.8526Z" fill="#582900"/>
<path d="M43.5742 15.9522C44.3766 15.15 44.0152 13.488 42.767 12.2401C41.5187 10.9922 39.8563 10.631 39.0538 11.4332C38.2513 12.2354 38.6127 13.8973 39.861 15.1452C41.1093 16.3931 42.7717 16.7544 43.5742 15.9522Z" fill="#F1668C"/>
<path d="M9.86657 15.1452C11.1148 13.8973 11.4762 12.2354 10.6738 11.4332C9.87132 10.6309 8.20888 10.9922 6.96062 12.2401C5.71236 13.488 5.35096 15.15 6.15341 15.9522C6.95587 16.7544 8.6183 16.3931 9.86657 15.1452Z" fill="#F1668C"/>
<path d="M29.9934 31.4214C31.9076 31.4214 33.4594 29.8701 33.4594 27.9564C33.4594 26.0427 31.9076 24.4914 29.9934 24.4914C28.0791 24.4914 26.5273 26.0427 26.5273 27.9564C26.5273 29.8701 28.0791 31.4214 29.9934 31.4214Z" fill="#FFD444"/>
<path d="M29.9935 29.9251C31.0812 29.9251 31.9629 29.0437 31.9629 27.9564C31.9629 26.8691 31.0812 25.9876 29.9935 25.9876C28.9059 25.9876 28.0242 26.8691 28.0242 27.9564C28.0242 29.0437 28.9059 29.9251 29.9935 29.9251Z" fill="#582900"/>
<path d="M28.3427 28.0794C28.979 28.0794 29.4948 27.5638 29.4948 26.9277C29.4948 26.2916 28.979 25.776 28.3427 25.776C27.7065 25.776 27.1907 26.2916 27.1907 26.9277C27.1907 27.5638 27.7065 28.0794 28.3427 28.0794Z" fill="white"/>
<path d="M19.7344 31.4214C21.6486 31.4214 23.2004 29.8701 23.2004 27.9564C23.2004 26.0427 21.6486 24.4914 19.7344 24.4914C17.8201 24.4914 16.2683 26.0427 16.2683 27.9564C16.2683 29.8701 17.8201 31.4214 19.7344 31.4214Z" fill="#FFD444"/>
<path d="M19.7345 29.9251C20.8221 29.9251 21.7038 29.0437 21.7038 27.9564C21.7038 26.8691 20.8221 25.9876 19.7345 25.9876C18.6468 25.9876 17.7651 26.8691 17.7651 27.9564C17.7651 29.0437 18.6468 29.9251 19.7345 29.9251Z" fill="#582900"/>
<path d="M18.0837 28.0794C18.72 28.0794 19.2358 27.5638 19.2358 26.9277C19.2358 26.2916 18.72 25.776 18.0837 25.776C17.4474 25.776 16.9316 26.2916 16.9316 26.9277C16.9316 27.5638 17.4474 28.0794 18.0837 28.0794Z" fill="white"/>
<path d="M24.8639 6.59476C26.6292 6.59476 28.0602 5.67507 28.0602 4.54056C28.0602 3.40606 26.6292 2.48636 24.8639 2.48636C23.0985 2.48636 21.6675 3.40606 21.6675 4.54056C21.6675 5.67507 23.0985 6.59476 24.8639 6.59476Z" fill="#F1668C"/>
</svg>
