<svg width="24" height="24" viewBox="0 0 24 24" fill="none" xmlns="http://www.w3.org/2000/svg">
<path opacity="0.3" fill-rule="evenodd" clip-rule="evenodd" d="M6.99976 5.99994C4.23833 5.99994 1.99976 8.23852 1.99976 10.9999V16.9999C1.99976 19.7614 4.23833 21.9999 6.99976 21.9999H16.9998C19.6773 21.9999 21.8634 19.8952 21.9936 17.2499H17.4998C15.7048 17.2499 14.2498 15.7949 14.2498 13.9999C14.2498 12.205 15.7048 10.7499 17.4998 10.7499H21.9936C21.8634 8.10467 19.6773 5.99994 16.9998 5.99994H6.99976ZM5.99976 16.7499C5.58554 16.7499 5.24976 17.0857 5.24976 17.4999C5.24976 17.9142 5.58554 18.2499 5.99976 18.2499H11.9998C12.414 18.2499 12.7498 17.9142 12.7498 17.4999C12.7498 17.0857 12.414 16.7499 11.9998 16.7499H5.99976Z" fill="#9E836B"/>
<path fill-rule="evenodd" clip-rule="evenodd" d="M17.4998 12.2499H21.9998V15.7499H17.4998C16.5333 15.7499 15.7498 14.9664 15.7498 13.9999C15.7498 13.0334 16.5333 12.2499 17.4998 12.2499ZM17.4998 13.2499C17.0855 13.2499 16.7498 13.5857 16.7498 13.9999C16.7498 14.4142 17.0855 14.7499 17.4998 14.7499H17.6998C18.114 14.7499 18.4498 14.4142 18.4498 13.9999C18.4498 13.5857 18.114 13.2499 17.6998 13.2499H17.4998Z" fill="#9E836B"/>
<path d="M19.4875 4.99291C18.7665 3.00153 16.6603 1.71589 14.4411 2.17279L5.8404 3.94352C4.04402 4.31336 2.58863 5.49759 1.82739 7.06293C3.01486 5.50519 4.88998 4.49989 6.9999 4.49989H16.9999C17.8811 4.49989 18.7213 4.67522 19.4875 4.99291Z" fill="#9E836B"/>
</svg>
