<svg width="20" height="20" viewBox="0 0 20 20" fill="none" xmlns="http://www.w3.org/2000/svg">
<path opacity="0.3" fill-rule="evenodd" clip-rule="evenodd" d="M1 0.75C0.585786 0.75 0.25 1.08579 0.25 1.5C0.25 1.91421 0.585786 2.25 1 2.25H2.25V17.4656C2.25 18.9186 3.91841 19.7387 5.06891 18.8512L6.39974 17.8246C6.48344 17.76 6.59871 17.7551 6.68763 17.8122L8.51292 18.9856C9.41879 19.568 10.5812 19.568 11.4871 18.9856L13.3124 17.8122C13.4013 17.7551 13.5166 17.76 13.6003 17.8246L14.9311 18.8512C16.0816 19.7387 17.75 18.9186 17.75 17.4656V2.25H19C19.4142 2.25 19.75 1.91421 19.75 1.5C19.75 1.08579 19.4142 0.75 19 0.75H1ZM6.25 7.5C6.25 7.08579 6.58579 6.75 7 6.75H10C10.4142 6.75 10.75 7.08579 10.75 7.5C10.75 7.91421 10.4142 8.25 10 8.25H7C6.58579 8.25 6.25 7.91421 6.25 7.5ZM7 10.75C6.58579 10.75 6.25 11.0858 6.25 11.5C6.25 11.9142 6.58579 12.25 7 12.25H10C10.4142 12.25 10.75 11.9142 10.75 11.5C10.75 11.0858 10.4142 10.75 10 10.75H7ZM12.25 7.5C12.25 7.08579 12.5858 6.75 13 6.75H13.5C13.9142 6.75 14.25 7.08579 14.25 7.5C14.25 7.91421 13.9142 8.25 13.5 8.25H13C12.5858 8.25 12.25 7.91421 12.25 7.5ZM13 10.75C12.5858 10.75 12.25 11.0858 12.25 11.5C12.25 11.9142 12.5858 12.25 13 12.25H13.5C13.9142 12.25 14.25 11.9142 14.25 11.5C14.25 11.0858 13.9142 10.75 13.5 10.75H13Z" fill="#9E836B"/>
</svg>
